HIERARCHY
ROOT Hips
{
	OFFSET 0.000000 0.000000 0.000000 
	CHANNELS 6 Xposition Yposition Zposition Zrotation Yrotation Xrotation
	JOINT LeftUpLeg
	{
		OFFSET 1.363060 -1.794630 0.839290 
		CHANNELS 3 Zrotation Yrotation Xrotation
		JOINT LeftLeg
		{
			OFFSET 2.448110 -6.726130 0.000000 
			CHANNELS 3 Zrotation Yrotation Xrotation
			JOINT LeftFoot
			{
				OFFSET 2.562200 -7.039590 0.000000 
				CHANNELS 3 Zrotation Yrotation Xrotation
				JOINT LeftToeBase
				{
					OFFSET 0.157640 -0.433110 2.322550 
					CHANNELS 3 Zrotation Yrotation Xrotation
					End Site
					{
						OFFSET 0.000000 0.000000 0.000000 
					}
				}
			}
		}
	}
	JOINT RightUpLeg
	{
		OFFSET -1.305520 -1.794630 0.839290 
		CHANNELS 3 Zrotation Yrotation Xrotation
		JOINT RightLeg
		{
			OFFSET -2.542530 -6.985550 0.000000 
			CHANNELS 3 Zrotation Yrotation Xrotation
			JOINT RightFoot
			{
				OFFSET -2.568260 -7.056230 0.000000 
				CHANNELS 3 Zrotation Yrotation Xrotation
				JOINT RightToeBase
				{
					OFFSET -0.164730 -0.452590 2.363150 
					CHANNELS 3 Zrotation Yrotation Xrotation
					End Site
					{
						OFFSET 0.000000 0.000000 0.000000 
					}
				}
			}
		}
	}
	JOINT Spine
	{
		OFFSET 0.028270 2.035590 -0.193380 
		CHANNELS 3 Zrotation Yrotation Xrotation
		JOINT Spine1
		{
			OFFSET 0.056720 2.048850 -0.042750 
			CHANNELS 3 Zrotation Yrotation Xrotation
			JOINT Neck1
			{
				OFFSET -0.054170 1.746240 0.172020 
				CHANNELS 3 Zrotation Yrotation Xrotation
				JOINT Head
				{
					OFFSET 0.104070 1.761360 -0.123970 
					CHANNELS 3 Zrotation Yrotation Xrotation
					End Site
					{
						OFFSET 0.000000 0.000000 0.000000 
					}
				}
			}
			JOINT LeftArm
			{
				OFFSET 3.362410 1.200890 -0.311210 
				CHANNELS 3 Zrotation Yrotation Xrotation
				JOINT LeftForeArm
				{
					OFFSET 4.983000 -0.000000 -0.000000 
					CHANNELS 3 Zrotation Yrotation Xrotation
					JOINT LeftHand
					{
						OFFSET 3.483560 -0.000000 -0.000000 
						CHANNELS 3 Zrotation Yrotation Xrotation
						JOINT LeftHandIndex1
						{
							OFFSET 0.715260 -0.000000 -0.000000 
							CHANNELS 3 Zrotation Yrotation Xrotation
							End Site
							{
								OFFSET 0.000000 0.000000 0.000000 
							}
						}
					}
				}
			}
			JOINT RightArm
			{
				OFFSET -3.136600 1.374050 -0.404650 
				CHANNELS 3 Zrotation Yrotation Xrotation
				JOINT RightForeArm
				{
					OFFSET -5.241900 -0.000000 -0.000000 
					CHANNELS 3 Zrotation Yrotation Xrotation
					JOINT RightHand
					{
						OFFSET -3.444170 -0.000000 -0.000000 
						CHANNELS 3 Zrotation Yrotation Xrotation
						JOINT RightHandIndex1
						{
							OFFSET -0.622530 -0.000000 -0.000000 
							CHANNELS 3 Zrotation Yrotation Xrotation
							End Site
							{
								OFFSET 0.000000 0.000000 0.000000 
							}
						}
					}
				}
			}
		}
	}
}
MOTION
Frames: 17
Frame Time: 0.041667
-13.753328 17.868952 -12.566216 -1.986637 32.460352 2.312808 -11.803919 -7.676066 -22.186260 -1.343505 4.932734 14.102318 0.410867 -0.781159 8.851479 0.155700 -2.542400 -7.007300 22.913772 -3.295227 9.142495 0.000127 -4.190911 13.668486 0.657202 -4.316021 -1.256078 -0.706600 5.372700 -14.974800 1.576409 4.847974 1.170399 -2.338175 2.474585 -3.796737 5.897303 -8.440644 23.462700 3.873100 -4.383400 15.370600 -85.270534 4.715398 7.461604 12.883381 -18.256951 -2.328287 -1.891816 -2.288339 9.135521 -7.125000 0.000000 0.000000 82.512685 0.639107 13.842138 -15.138052 22.498354 -3.224104 0.468762 -0.192587 7.423395 7.125000 0.000000 0.000000 
-13.670170 17.881405 -12.484062 -1.866890 32.439419 2.388260 -12.087301 -7.458377 -21.976365 -1.355348 4.888622 14.005316 0.418678 -0.860344 8.852967 0.202100 -2.894600 -7.985600 22.716543 -3.191879 9.137608 -0.088204 -4.484919 14.481968 0.689912 -4.460460 -0.801650 -0.650900 5.160700 -14.367500 1.516632 4.884803 1.140471 -2.408219 2.492247 -3.834672 5.883623 -8.500310 23.524197 3.854800 -4.405500 15.385200 -85.137803 4.763072 7.444086 12.859253 -18.230625 -2.320353 -1.895828 -2.269887 9.484576 -7.125000 0.000000 0.000000 82.650690 0.346248 13.690691 -15.281803 22.703745 -3.287850 0.460287 -0.171691 6.990462 7.125000 0.000000 0.000000 
-13.583697 17.892855 -12.398996 -1.560688 32.510395 2.576969 -12.489066 -7.370746 -21.655926 -1.367224 4.832814 13.900077 0.460830 -1.131948 9.209752 0.125100 -2.279600 -6.279100 22.332773 -3.122002 8.954691 -0.201493 -4.843075 15.478356 0.702057 -4.517806 -0.288273 -0.535400 4.688500 -13.022100 1.420351 4.835531 1.131344 -2.449475 2.469832 -3.784467 5.924688 -8.540350 23.587158 3.862000 -4.409900 15.433400 -84.970702 4.717972 7.511854 12.852246 -18.226008 -2.320359 -1.857585 -2.264280 9.451274 -7.125000 0.000000 0.000000 82.853889 0.124526 13.507310 -15.450976 22.941065 -3.361401 0.460869 -0.154277 6.539729 7.125000 0.000000 0.000000 
-13.494313 17.908221 -12.310012 -1.259162 32.553589 2.773940 -12.893862 -7.150712 -21.338840 -1.372490 4.791202 13.838851 0.532960 -1.576962 9.763447 0.075200 -1.768700 -4.866700 21.945577 -3.033455 8.747329 -0.319366 -5.197056 16.468271 0.704320 -4.537620 0.201765 -0.476400 4.426700 -12.280300 1.366706 4.776355 1.154716 -2.375823 2.442959 -3.646449 5.929498 -8.541287 23.650631 3.876700 -4.416700 15.500700 -84.940472 4.593244 7.636395 12.851990 -18.224630 -2.320883 -1.860265 -2.275085 9.224136 -7.125000 0.000000 0.000000 82.970694 -0.110176 13.280843 -15.647489 23.219589 -3.446713 0.468358 -0.161037 6.388522 7.125000 0.000000 0.000000 
-13.406635 17.922683 -12.221732 -1.257612 32.597218 2.751148 -13.082498 -6.730097 -21.033143 -1.376199 4.755848 13.775745 0.578792 -1.867197 10.017263 0.137500 -2.389700 -6.583900 21.864320 -2.884134 8.589300 -0.452340 -5.576878 17.545988 0.704018 -4.550309 0.584299 -0.504400 4.552600 -12.636800 1.385653 4.740639 1.168934 -2.298404 2.421929 -3.583913 5.940629 -8.558691 23.660561 3.914000 -4.447700 15.518000 -85.027213 4.525341 7.510161 12.844112 -18.209136 -2.315703 -1.881989 -2.288497 9.439980 -7.125000 0.000000 0.000000 83.022255 -0.446862 13.045798 -15.802822 23.439386 -3.515267 0.470353 -0.163001 6.504970 7.125000 0.000000 0.000000 
-13.317551 17.929312 -12.135662 -1.291228 32.669082 2.631923 -13.217755 -6.368738 -20.654615 -1.374331 4.740815 13.762043 0.585194 -1.926365 10.027619 0.192900 -2.828300 -7.801000 21.775279 -2.889381 8.424841 -0.603973 -5.976547 18.696143 0.692553 -4.515720 1.007900 -0.448700 4.297700 -11.915700 1.368615 4.656533 1.156218 -2.361743 2.375410 -3.631028 6.000829 -8.502063 23.754938 3.963200 -4.423300 15.578300 -85.061274 4.559213 7.104796 12.858219 -18.228552 -2.319629 -1.869343 -2.244271 9.857923 -7.125000 0.000000 0.000000 83.157019 -0.755397 12.873227 -15.859714 23.520909 -3.541436 0.468571 -0.163549 6.529401 7.125000 0.000000 0.000000 
-13.226359 17.940560 -12.046377 -1.243803 32.761575 2.572035 -13.359486 -6.145793 -20.219730 -1.371049 4.722814 13.754159 0.609764 -2.125574 10.106930 0.129300 -2.317800 -6.384700 21.582445 -2.979072 8.138514 -0.781981 -6.408153 19.952280 0.648680 -4.350464 1.902016 -0.514100 4.595500 -12.758400 1.353132 4.554571 1.144766 -2.353318 2.323875 -3.629502 5.864846 -8.355932 23.884872 3.895400 -4.360100 15.626600 -85.052005 4.634399 7.000813 12.890829 -18.282001 -2.334111 -1.842494 -2.218690 9.857500 -7.125000 0.000000 0.000000 83.215534 -1.077417 12.863966 -15.939157 23.635648 -3.578478 0.465848 -0.165855 6.302558 7.125000 0.000000 0.000000 
-13.135668 17.952813 -11.955586 -1.368938 32.847103 2.429722 -13.380373 -5.679281 -19.919396 -1.365436 4.698640 13.736602 0.709870 -2.863221 10.279198 0.084200 -1.871500 -5.150600 21.566717 -2.988213 7.771550 -0.982605 -6.874403 21.329005 0.610292 -4.212819 2.540023 -0.200000 2.879400 -7.943200 1.397264 4.459354 1.141995 -2.258770 2.272296 -3.609187 5.850904 -8.247317 23.940230 3.913900 -4.323900 15.653300 -85.087455 4.696643 7.099481 12.935987 -18.355023 -2.353493 -1.853077 -2.237907 9.612014 -7.125000 0.000000 0.000000 83.197016 -1.436191 12.809230 -16.114286 23.881121 -3.658787 0.460709 -0.156675 6.081655 7.125000 0.000000 0.000000 
-13.049396 17.959943 -11.865498 -1.542114 32.930233 2.356050 -13.396086 -5.007308 -19.867512 -1.359706 4.671892 13.707059 0.839168 -3.817533 10.577077 0.046400 -1.390900 -3.824900 21.600953 -2.988197 7.233972 -1.209841 -7.364237 22.799629 0.559759 -4.052344 3.519099 -0.173900 2.686600 -7.407300 1.352967 4.370588 1.079512 -2.420728 2.224691 -3.666342 5.840687 -8.256727 23.989031 3.891900 -4.315500 15.670800 -84.863636 4.832996 7.395215 12.986420 -18.451055 -2.378464 -1.859587 -2.277185 9.255605 -7.125000 0.000000 0.000000 83.472003 -1.831808 12.639718 -16.286965 24.124411 -3.740612 0.451515 -0.143160 5.920437 7.125000 0.000000 0.000000 
-12.958706 17.969384 -11.772698 -1.647257 33.022651 2.252005 -13.501150 -4.310821 -19.702749 -1.353719 4.633466 13.659582 0.970609 -4.876512 10.896728 0.022400 -0.965300 -2.653200 21.523934 -3.057038 6.671636 -1.470237 -7.888298 24.399325 0.480707 -3.783226 4.597850 -0.312900 3.596200 -9.943300 1.212392 4.402287 0.962435 -2.880880 2.232213 -3.914323 5.907473 -8.365950 24.045835 3.889800 -4.332900 15.685700 -84.412475 5.123698 8.116581 13.075793 -18.611586 -2.424283 -1.843961 -2.301188 8.756202 -7.125000 0.000000 0.000000 83.943304 -2.391812 12.138423 -16.425982 24.327662 -3.808837 0.443576 -0.146444 6.057106 7.125000 0.000000 0.000000 
-12.865605 17.980130 -11.682309 -1.449983 33.119737 2.246902 -13.900707 -3.623651 -19.369564 -1.354867 4.563623 13.538054 1.066300 -5.799518 11.121600 0.016400 -0.826000 -2.270200 21.153152 -3.119494 6.084346 -1.764093 -8.449242 26.122743 0.393247 -3.521377 5.792115 -0.411000 4.115300 -11.401400 1.222874 4.326961 1.044122 -2.657710 2.200853 -3.658163 5.744235 -8.288890 23.949034 3.769400 -4.289600 15.535900 -84.433601 4.957411 8.259420 13.073584 -18.609303 -2.424751 -1.853701 -2.294411 8.744359 -7.125000 0.000000 0.000000 83.851103 -2.566554 12.182029 -16.474617 24.398439 -3.831236 0.447091 -0.147529 5.907011 7.125000 0.000000 0.000000 
-12.777325 17.993890 -11.594431 -1.238738 33.137451 2.252993 -14.301840 -2.933225 -19.050661 -1.357474 4.481526 13.384088 1.144517 -6.632387 11.363865 0.003100 -0.361600 -0.993500 20.768544 -3.087099 5.396550 -2.086416 -9.025367 27.919969 0.310792 -3.357542 7.169869 -0.426300 4.190500 -11.613300 0.983049 4.579583 0.871621 -3.152096 2.317189 -4.030970 5.830966 -8.677035 23.861370 3.697800 -4.398700 15.296500 -83.694046 5.271145 9.202103 12.993533 -18.535542 -2.404591 -1.873523 -2.306575 8.816096 -7.125000 0.000000 0.000000 84.431568 -3.384944 11.613723 -16.564771 24.526628 -3.875025 0.448066 -0.136364 5.516934 7.125000 0.000000 0.000000 
-12.691455 18.008452 -11.508561 -1.039897 33.117742 2.281767 -14.637880 -2.412034 -18.678387 -1.363402 4.389616 13.197440 1.198240 -7.292790 11.524877 0.000100 0.065500 0.180000 20.415956 -2.894473 4.666571 -2.432698 -9.607493 29.758056 0.240116 -3.360228 8.720857 -0.343300 3.765000 -10.416300 0.814666 4.693078 0.766837 -3.459031 2.365485 -4.274050 5.941804 -8.863651 23.828252 3.696800 -4.442500 15.195500 -83.194425 5.548726 10.067639 13.054542 -18.658367 -2.441206 -1.853411 -2.318177 8.530715 -7.125000 0.000000 0.000000 84.817006 -3.926822 11.213974 -16.622703 24.610038 -3.903670 0.447918 -0.132564 5.595195 7.125000 0.000000 0.000000 
-12.605083 18.017793 -11.419477 -0.805524 33.093165 2.337989 -15.016181 -1.860432 -18.262328 -1.374416 4.268607 12.933175 1.247639 -7.982007 11.680841 0.004700 0.440400 1.210100 20.036389 -2.678261 3.906693 -2.810768 -10.201795 31.668180 0.154131 -3.407376 10.416487 -0.240800 3.157600 -8.717900 0.823707 4.577648 0.830346 -3.203657 2.312508 -4.108758 5.877524 -8.732833 23.805376 3.675700 -4.392700 15.189600 -83.219806 5.450736 10.193755 13.130717 -18.770661 -2.475625 -1.831768 -2.282659 8.421704 -7.125000 0.000000 0.000000 84.691090 -4.025501 11.345360 -16.669870 24.678774 -3.926695 0.446003 -0.139344 5.664563 7.125000 0.000000 0.000000 
-12.507262 18.026832 -11.325975 -0.626469 33.187060 2.398676 -15.390075 -1.380328 -17.795844 -1.386115 4.135812 12.640255 1.293220 -8.721706 11.828211 0.010000 0.645100 1.772700 19.617393 -2.763034 2.967087 -3.212950 -10.786653 33.608518 0.008089 -3.271228 12.302405 -0.172000 2.671500 -7.365600 0.872958 4.413922 0.904037 -2.904523 2.234119 -3.840805 5.755249 -8.564203 23.819752 3.635700 -4.336100 15.203300 -83.367517 5.212494 9.732314 13.114530 -18.738838 -2.466354 -1.850668 -2.208399 9.258391 -7.125000 0.000000 0.000000 84.443250 -4.036474 11.525762 -16.645377 24.650827 -3.916216 0.443873 -0.140485 5.603338 7.125000 0.000000 0.000000 
-12.418680 18.038281 -11.242214 -0.351411 33.306620 2.467702 -15.827274 -0.984051 -17.339222 -1.396055 4.011657 12.371751 1.322925 -9.346310 12.094654 0.027500 1.071300 2.945000 19.173237 -2.696183 1.953320 -3.647894 -11.377231 35.586726 -0.103451 -3.549949 14.330492 -0.073700 1.751500 -4.819300 0.941908 4.209990 0.947161 -2.498054 2.131084 -3.762559 5.735633 -8.353162 23.928439 3.690700 -4.275900 15.303400 -83.555669 5.060662 9.536036 13.139332 -18.770468 -2.474537 -1.896128 -2.203631 9.836514 -7.125000 0.000000 0.000000 84.125268 -4.086773 11.640450 -16.640732 24.643845 -3.913828 0.439057 -0.137584 5.729424 7.125000 0.000000 0.000000 
-12.330099 18.045211 -11.156645 -0.038675 33.374949 2.487350 -16.300941 -0.617203 -16.777136 -1.406700 3.875425 12.074630 1.334258 -9.823449 12.344709 0.064000 1.632800 4.491800 18.682448 -2.518427 1.041950 -4.113037 -11.966693 37.610800 -0.229415 -3.878901 16.292291 -0.020400 0.921900 -2.534100 0.834930 4.211825 0.839491 -2.614416 2.124837 -4.123258 5.799015 -8.427793 23.987799 3.723200 -4.305300 15.316000 -83.242091 5.347973 10.356742 13.219797 -18.910167 -2.517682 -1.881802 -2.221715 9.670195 -7.125000 0.000000 0.000000 84.264908 -4.575117 11.316203 -16.682932 24.707204 -3.936303 0.428909 -0.144134 5.997535 7.125000 0.000000 0.000000 
